/* XPM */
static char *tkgatelogo[] = {
/* columns rows colors chars-per-pixel */
"70 60 256 2 ",
"   c #040204",
".  c #4C822C",
"X  c #9C9A9C",
"o  c #444244",
"O  c #64C23C",
"+  c #6C6A6C",
"@  c #144EE4",
"#  c #ACE244",
"$  c #648ABC",
"%  c #146AE4",
"&  c #3C72D4",
"*  c #74E23C",
"=  c #FCCE7C",
"-  c #2C82DC",
";  c #7CF244",
":  c #D4D2D4",
">  c #2C6ADC",
",  c #64BA34",
"<  c #848284",
"1  c #4C82CC",
"2  c #E49E5C",
"3  c #346A1C",
"4  c #ECFE4C",
"5  c #8CF254",
"6  c #1476E4",
"7  c #242224",
"8  c #7496B4",
"9  c #547EC4",
"0  c #145EE4",
"q  c #4C8AC4",
"w  c #B4B6B4",
"e  c #3C7AD4",
"r  c #2C7ADC",
"t  c #646264",
"y  c #74EA3C",
"u  c #ECEAEC",
"i  c #6CD23C",
"p  c #748EB4",
"a  c #7CFA44",
"s  c #3C7624",
"d  c #54A62C",
"f  c #9CFE54",
"g  c #949294",
"h  c #FCEA8C",
"j  c #2476E4",
"k  c #2C62DC",
"l  c #FCDE84",
"z  c #FCF694",
"x  c #141214",
"c  c #545254",
"v  c #6492BC",
"b  c #3C82D4",
"n  c #FCBA6C",
"m  c #8CFA4C",
"M  c #343234",
"N  c #5C8ABC",
"B  c #4C7ACC",
"V  c #74DA44",
"C  c #ACFE64",
"Z  c #ACAAAC",
"A  c #B47644",
"S  c #246AE4",
"D  c #2462E4",
"F  c #2C7EDC",
"G  c #84EE44",
"H  c #8CFE54",
"J  c #84F244",
"K  c #DCDEDC",
"L  c #2C72DC",
"P  c #5C86C4",
"I  c #147EE4",
"U  c #C4C2C4",
"Y  c #447ACC",
"T  c #F4F6F4",
"R  c #4C7E2C",
"E  c #849AA4",
"W  c #FCC674",
"Q  c #4C8E24",
"!  c #7C7A7C",
"~  c #6C8ABC",
"^  c #4C76CC",
"/  c #7CE24C",
"(  c #FCD67C",
")  c #5482C4",
"_  c #3C721C",
"`  c #1466E4",
"'  c #84FA44",
"]  c #447E24",
"[  c #5CAA2C",
"{  c #FCFE94",
"}  c #4482CC",
"|  c #0C0A0C",
" . c #A4A2A4",
".. c #4C4A4C",
"X. c #1456E4",
"o. c #1472E4",
"O. c #4476CC",
"+. c #346ADC",
"@. c #8C8A8C",
"#. c #1C76E4",
"$. c #2C2A2C",
"%. c #7C96AC",
"&. c #548AC4",
"*. c #3476D4",
"=. c #7CEA3C",
"-. c #74D23C",
";. c #A4FE5C",
":. c #FCF28C",
">. c #247EDC",
",. c #FCE684",
"<. c #1C1A1C",
"1. c #5C5A5C",
"2. c #94FE4C",
"3. c #3C3A3C",
"4. c #5C8EBC",
"5. c #7CDE44",
"6. c #B4FE64",
"7. c #84F644",
"8. c #447ECC",
"9. c #8C9EA4",
"0. c #84FE44",
"q. c #6CCE3C",
"w. c #747274",
"e. c #1C6AE4",
"r. c #3482D4",
"t. c #DCDADC",
"y. c #8CA2A4",
"u. c #4C86CB",
"i. c #3C6E1C",
"p. c #CCCECC",
"a. c #FCB26C",
"s. c #BCBEBC",
"d. c #F4F2F4",
"f. c #B4B2B4",
"g. c #E4E6E4",
"h. c #CCCACC",
"j. c #FCFEFC",
"k. c #FCC274",
"l. c #6CBE3C",
"z. c #BCBABC",
"x. c #7C92AC",
"c. c #5CA234",
"v. c #3466D4",
"b. c #E4E2E4",
"n. c #FCFAFC",
"m. c #1C62E4",
"M. c #447624",
"N. c #6C92B6",
"B. c #347ED5",
"V. c #94FE55",
"C. c #3472D4",
"Z. c #5C7EC4",
"A. c #84EE54",
"S. c #1C7EE4",
"D. c #1C66E4",
"F. c #FCFEA4",
"G. c #74CE3C",
"H. c #247ADE",
"J. c #FCBE74",
"K. c #8CFE4B",
"L. c #74DE3C",
"P. c #246EE0",
"I. c #2466DC",
"U. c #849EA4",
"Y. c #FCCA78",
"T. c #4C922C",
"R. c #6C8EB9",
"E. c #7CE649",
"W. c #FCDA84",
"Q. c #5CAE34",
"!. c #4486CC",
"~. c #346ED4",
"^. c #7C9AAC",
"/. c #347AD7",
"(. c #7CEE44",
"). c #74D63C",
"_. c #040604",
"`. c #4C862C",
"'. c #9C9E9C",
"]. c #444644",
"[. c #6C6E6C",
"{. c #1452E4",
"}. c #648EBC",
"|. c #3C76D4",
" X c #74E63C",
".X c #FCD27C",
"XX c #7CF644",
"oX c #D4D6D4",
"OX c #2C6EDC",
"+X c #848684",
"@X c #346E1C",
"#X c #147AE4",
"$X c #242624",
"%X c #1462E4",
"&X c #3C7ED4",
"*X c #646664",
"=X c #ECEEEC",
"-X c #7492B4",
";X c #949694",
":X c #FCEE8C",
">X c #2C66DC",
",X c #FCE284",
"<X c #FCFA94",
"1X c #141614",
"2X c #545654",
"3X c #3C86D4",
"4X c #343634",
"5X c #4C7ECC",
"6X c #ACAEAC",
"7X c #B47A44",
"8X c #C4C6C4",
"9X c #7C7E7C",
"0X c #5486C4",
"qX c #0C0E0C",
"wX c #A4A6A4",
"eX c #4C4E4C",
"rX c #145AE4",
"tX c #8C8E8C",
"yX c #1C7AE4",
"uX c #2C2E2C",
"iX c #548EC4",
"pX c #1C1E1C",
"aX c #5C5E5C",
"sX c #3C3E3C",
"dX c #1C6EE4",
"fX c #447A24",
"gX c #4C8ACC",
"hX c #9CFE5C",
"jX c #5C8AC4",
"kX c #ACFE6C",
"lX c #84EE4C",
"zX c #84F24C",
"xX c #447AD4",
"cX c #849AAC",
"vX c #4C8E2C",
"bX c #FCD684",
"nX c #3C7224",
"mX c #84FA4C",
"MX c #447E2C",
"NX c #5CAA34",
"BX c #FCFE9C",
"VX c #4482D4",
"CX c #4476D4",
"ZX c #7C96B4",
"AX c #7CEA44",
"SX c #74D244",
"DX c #A4FE64",
"FX c #FCF294",
"GX c #FCE68C",
"HX c #5C8EC4",
"JX c #7CDE4C",
"KX c #B4FE6C",
"LX c #84F64C",
"PX c #447ED4",
"IX c #84FE4C",
"UX c #3482DC",
/* pixels */
"&Xb &Xb } b b } b !.!.!.} !.u.gXgX!.!.3Xb r.- F S.#X#X#X#X#X#X#XI #XI #XI #XI I I I I I I I I I I I I I I I I I I I I I I I I I I I I I I I ",
"1 u.1 u.1 u.0X&.&.jX0X&.jX4.HX4.4.4.jXiX&.&.!.b r.H.yX#XyX#XyX#XyX#XyX#XyX#XyX#XyX#XyXI yXI yXI yXI yXI yXI yXI yXI yXI yXI yXI yXI yX#XyX#X",
"u.0X0X0X&.N jXN jXN HXN HXN jXN HXHX4.HX4.HXjXq u.!.3Xr.F H.#X6 #X#X#X#X#X#X#X#X#X#X#X#X#X#X#X#X#X#X#X#X#X#X#X#X#X#X#X#X#X#X#X#X#X#X#X#X#XyX",
"1 ) 0X0XP j.j.j.j.}.}.}.}.N.}.}.jX&.0X0X}.}.4.jXHXHXjX&.!.b B.F F H.#.6 yX6 yX6 yX#XyX#XyX#XyX#XyX#XyX#XyX#XyX#XyX#XyX6 n.j.j.yX#XyX#XyX#X#X",
") 0X0X0Xj.j.j.j.j.j.j.-X8 -X8 N.N.-X-XN.N.}.N.N.N.N.N.v }.&.!.b VX!.UXB.r H.6 6 6 6 6 6 6 6 6 6 6 6 #X6 #XH.>.>.>.#.tXz.K j.j.j.j.#X6 #X#.#X",
"1 ) ) : n.j.j.j.j.j.j.j.%.%.8 -X%.%.^.cX^.%.8 N.N.N.-XN.}.}.jX&.u.u.VXb B.H.#.6 #.6 #.6 #.6 #.6 #.H.H.r >.r F UXF t ;XX : : j.j.j.j.#.6 6 6 ",
") 0X9Xs.g.j.j.j.j.j.j.j.j.9.9.9.9.y.y.9.U.%.8 N.-X-XN.N.}.jX0Xu.1 u.&.jX&.b j #.o.o.6 o.#.#.H.r B.UXF r H.H.r F 7 sXaXtXz.8X: j.j.j.j.yX6 #.",
"Y ) < Z p.d.j.j.j.j.j.j.j.'.X '.X '.'.'.9.cX%.%.8 8 }.jXP u.} } u.1 u.&.0X} /.j o.o.#.o.#.r B.b &XB.B.B.B.b &XB.7 $X3.9X+X .z.u j.j.j.#.6 #.",
"|.Y ..+XZ z.b.d.T n.j.n.T : X X '.'.9.U.ZX-XN.R.}.$ }.N N $ }.$ }.N &.1 } } &XPX&X/././.B.PX1 } VX&XVXVX} &XB.7 pX7 uXc ! @.wXf.oXK n.&XB.b ",
"& Y ].[.tXX w t.t.g.u =Xp.f.X '.9.E %.N.~ }.P 0X) P 0X1 0XN $ 4.$ N $ }.$ $ }.-X-X}.0X0X0X0Xu.} } 1 u.0X&.0X0XpXpX<.pXM 2Xw.+X .f.b.K 0X&.jX",
"|.B <.1.t 9X .w U f.s.8Xz.X 8 R.$ P 5X5XY e |.*.L dXS L *.8.0XP P 0X}.R.-X-X8 U.9.y.'.'.'.'.9.E ZXN.N.N.R.N.N.pX7 <.pX<.$XsX[.9X . .z.HX$ }.",
"~.B <.<.j.j.j.j.X Z Z Z ;X[.O.OX%X` ` ` ` ` D.` ` e.L *.*.Y 1 P $ N.%.U.9.y.'.X X ;XX ;XX X '.'.9.E %.N.N.R.N.<.<.<.<.<.<.=Xj.j.j.g }.}.N 4.",
"O.9 +XK j.j.j.j.j.j.j.j.! uXC.D.m.%Xm.%X` m.` ` D.P.O.0X$ $ M $.%.E E E U.<.'.'.X X X X ;X'.9.cX8 R.R.R.N.-X-X<.1X7 ;X .w g.j.j.j.j.R.}.}.$ ",
"x.U.g h.n.j.j.j.j.j.j.j.n.~.> I.%X%X%Xm.%X%X%X$.o sXS S Y   uXuX4XR.-XcXuX$X7  .'.'.'.pX].7 E -XR.R.}.}.R.N.8 -X7 uX*Xg tXf.p.u j.j.j.N.jX0X",
"~ p w.;X8Xb.T j.j.j.j.j.j.8XD I.I.7 $X7 0 %X%XM 4X4XM OX|.$X$.uXM ) ) ) $...4X7 %.%.<.7 ..<.N.R.N 7 $.4XR.R.R.pXpX7 4X[.[.f.h.: =Xj.j.} /.dX",
"^ 7 2XoXT h.t.j.j.j.j.j.j.h.0 rXx uX1X1X0 m.0 7 <.M pXm.D.  uX1XqX) 5X|.  3.4X<.|.Y   pXc pXP ) ) x 4X4X7 $ $ pXM ].M M $Xp.h.oXu t.j.0X0X1 ",
"Z.4XpXg.t.t.oXj.j.j.j.j.j.s.rXrX<.7 x $Xx 0 0 M $XuX$.0 0   3.7 qX%X%X%Xo o ].$X` `   M sX].5X5X  pXo ].$.0X1 pX2X7 M 4X$.8X: b.b.t.j. .'.'.",
">XM 3.d.8XK : j.j.j.j.j.j. .rXrXM uX$.M rXrXrX7 o 3.M m.0 o uX1X7 0 m.0 $X4XsX$.%X%X  1X$.o S |.  4X3.4X$.X X pX3.o sX].4Xp.t.g.K oXj.cXx.}.",
"X.uXo p.b.t.: j.j.j.j.j.j.Z X.rXsX3.3.7 7 rXrXM ..].7 rX0 $.3.3.$X-XE p $XsX3.$Xm.%X  1X7 sX%XD.  pX4X4X$.'.X pXsXsX..o 3.u p.t.t.h.j.ZX-X8 ",
"{.o sX: oXb.b.j.j.j.j.j.n.h.X.X.1X4XsX4Xx rXrX$XuX$.pXrX>X3.$XsX7 ~ $ ^ 7 o M uX%X0   qXpX3.P R.  qX$.].$.-XR.7 ].o M pXo g.oXt.K b.j.'.9.9.",
"v.o M g.oXp.oXj.j.j.j.j.j.w X.{.M $.4X7 | X.rXM o sX$.rXv.<.3...pXE E 9.uX].o x > m.  qX$X3.D.OX  M 3.3.pX9 C.pX3.o sXpX$.p.b.: oX=Xj.e.% % ",
"@ 4XuX: b.t.t.n.j.j.j.j.j.z.uX<.o o o sX$.$.  4Xo 1XM 4X  4XsX..uXM $   uX4X4XuX$.    $X..7 $.4X  qX$XsX$.sX  pXo ].].M sXt.b.b.b.: j.% e.% ",
"9.4X..b.K : oXj.j.j.j.j.j.z.$.4XsX4X$.7 x 7   sX$.pX<.uX  7 <.sX$X$.9   sXM $.7 $.    $.<.uX4XsX  _.M 3.$X].  pXM M ..3...b.oXu oXK j.P cXtX",
"@ 7 o g.K : K j.j.j.j.j.j.X {.{.pX4X$.$X| {.X.uX4X4XpXk D x 3.sX3.rXrXrX$.$X<.sX0 0   pX$X4X%X0   1X].sX$.%X%XpX1.4X].4Xo 8XK g.t.=Xj.` ` % ",
"@ sXeXK oXs.b.j.j.j.n.j.j.z.{.{.o 3.4X<.pXX.{.M ].M 3.X.X.$X$.$XpXX.rXrX7 7 pXuXrX0   o o 3.0 %X  <.3.eX4X%Xm.pX$.3.4X].M g.p.g.p.: j.e.% e.",
"@ 1.4Xt.t.=Xu j.j.j.j.j.j.z.@ {.$.1X$X7 <.{.X.$XM 7 <.X.X.sX4X7 7 rXrXrX$Xo $.7 m.0   3.sX4X0 0   $X3.$.3.%X%XpX..uX].$.].=XoXb.oXb.j.` ` % ",
"{...o p.: 8Xb.j.j.j.j.j.j.f.{.{.<.7 M 4X1X{.X.$.3.4X7 X.rXx o <.7 rXrXrXM ..3.4XrXrX  4X$.$.0 m.  sXeXM 3.%X` pXeX4X..$XM h.u K p.: j.e.` e.",
"{.3.4Xb.p.t.: j.j.j.j.j.j.f.{.{.x 4XsX3.<.{.X.1X7 M $.X.X.| 3.7 $.rXrXrXuXc $XM 0 0   7 ..<.%X0   1XsX].M m.%X7 eX..o $...t.h.t.K b.j.` % % ",
"{.3.3.oXoXK h.j.j.j.j.j.j.U {.{.<.1X7 $X<.X.X.x pX<.pXrXX.| 3.$.sXrXrXrXo c $XM 0 0   qX1XpX0 %X    3.o 4X%X%XpXM ].uXsX].oXb.: oXoXj.e.% e.",
"{.].sX: u 8Xn.j.j.j.j.j.j.f.X.{.$X<.pXM 7 X.X.<.$X$.<.rXrX| uX3.M rXm.rXpX4X3.3.0 0   qX<.$.%X%X  1X4XsX3.` %XpXM 3.4X4X7 t.oXoX8X: j.` % % ",
"V.3.uXt.U oXt.j.j.j.j.j.n.w K.0.7 | qX7 <./ f 3.4X].pXK.K.pXuXM M ;.f C 7 M sX3.2.;.  M $Xx C hX  7 sX3.$.;.;.pX4XsX$.3.sXd.K u h.d.n.% H mX",
";.o c K t.b.: j.j.j.j.j.j.6XC C $X<.pX7 <.K.K.<.4X3.$.K.f qXuX].3.V.6.f <.M $X$X2.C   $X3.pXV zX  pXM M 3.* lX7 ..M 4X7 3.t.K g.g.b.j.C T.T.",
"V.].$Xt.t.K K j.j.j.j.j.j.Z K.hX$.4XpXpXpXL.=.uXsXM pXJ V.M 3.4XM 2.C f 7 uXuX<.2.2.  4X4X<.K.q.  $X3.4X].q.H pX$Xc sX..sXoXt.=Xt.b.j.c.d vX",
"V.o uXg.t.oX: j.j.j.j.j.j.U hX;.$.M 4X7 pXC G 4X3.4Xx K.hX| ..uXo 2.V.V.uX$.4X<.m K.  4X3.sX* i   x $.].3.O 5.7 sX4X$.].uXt.u oXoXu j.Q.NX`.",
"KX4XuX8X: 8Xt.j.j.j.j.j.j.f.V.K.1X7 ].7 7 0.f uX7 pX<.2.0._.o 4Xo 0.V.V.M uXo 1XIX2.  $X$.<.hXi   _.sXuXuX, G <.aX2Xo o o oX: K : b.j.Q.fXQ ",
"V.pX$.oXK : oXj.j.j.T j.j.'.f C $XuXo $X| 0.C M uX7 $.K.K.1X4X4XsXAXE.SXqX4X$XpXC ;.  <.$XpXV.f   1X..c M # H pXsX1.uXM ].p.p.u K : j.V.hXV.",
"KX3.o b.p.b.t.j.j.j.j.n.j.h.K.K.7 o <.1XpXV.2.uX..M pX;.f _.M 3.3.l.G.hXo sXsX$.;.K.  ].M <.f f   | ].3.3.V.hX7 M ].o o M h.U K K b.j.f K.0.",
"K.7 ].h.t.K b.j.j.j.j.j.j.s.;.K.3.$X<.qX<.f DX7 3.4X7 H hXpX4XsXM i V.f pX]...$XhXV.  o $X$X;.V.  _.sX4X].V.f pXpXo M 4X].t.: oXu g.j.K.hX; ",
"f uX1.oXg.: d.j.j.j.j.j.j.h.V.=.4X$X7 _.$XV.;.pX$XsX$X; =.pX$.o sXs _ @XpX3.4X$.DX2.  4X$Xx 0.DX  qXeXo ].;.K.pXc uX4Xo sXw K : oXh.j.hX0.LX",
"f 7 uXz.K oXh.j.j.j.j.T j.'.m XX$.3.<.pXpX(.K.M ..sXM H 5.3.4XeX4XM.s fX].3.4X$.f DX  M uX<.V.K.  $.3.3.4XK.DXpX]...].3.sXK 8Xt.g.U j.V.hX' ",
"V.$X3.z.u 8Xp.j.j.j.j.j.j.w V.DXo sX4X$.<.K.LX4X4X3.3.G./ $...c pXfXs M.uX..].pXKX2.  4XM $.K.K.    ].o 4XC f pXo M 4X].4Xh.oXoXoXg.j.DX;.mX",
"IX$...K oXt.: j.j.j.j.j.n.wX' H M sXM $.pX XV.<.uXuX<.LX Xx sX3.$.fXnXs M uXM pX_ MX  4X4X4XhX;.  x 7 M $.;.C 7 ].4XsX..$X: h.: u h.j.hXK.V.",
"i.3.uXK b.h.t.T j.d.j.j.j. .s DXM 4XM ..x _ nXpXo M $X_ s | uX$X4XnXfXM.$XuX4X$.fX3   4XeX3.K.KX  1XsXuX$.f f pX3.o 3.M o p.: : h.K j.hX; LX",
"fXsX4XU 8X=Xb.j.j.j.j.j.j.z.M.s 7 ].M $.qXs M.4X4X$.7 s _ qXM pX<.s @X@X$.sXo 1Xs _   4XeXo V.f   M 4XsX7 V.KXpX3.4Xo uXo b.b.: K b.j.L.LX(.",
"s sX..: t.s.t.j.j.n.j.j.j.f.s fXpX4X..$XqXfXs eXM uXpXM.M.x sX$.qXM.M.DX7 <.o uXM.fX  7 ].sXf C   qXM M M 2.V.pXc 3.sXM 4Xp.oXg.p.b.j.V.(.LX",
"fX4X2Xt.K : : j.j.j.j.j.j.Z s fX7 4XeXuX| s 0.3.M o 4XDXs   o M 7 ] s fXuXsX4X4Xs s   1XuXuXfXV.  x o ].$Xf f pXo ].eX3.uXK g.b.d.=Xj.m H (.",
"s M 3.p.g.t.h.j.j.j.j.j.j.U _ fX1X3.M 3.1XfXs uX4Xo 7 ] ;.1X].3.M fXfXfX$.M 1X$.fXfX  1XsX3.MXR   qX].uX1X4 hXpX4X..o ....p.: t.oXb.j.H K.H ",
"i.pX4Xp.b.p.=Xj.j.j.j.j.j.6Xs 3 $X4X4X4XM M.s $.$.sXpXfX@X].3.uXuX_ nXs uX$.$.$Xs _   $.].3._ s   3.sX$.pX;.K.pXM ..M c ].p.t.K t.: j.H XXmX",
"fXo M K b.t.b.j.j.j.j.j.j.8Xo $X$...M $.$.sX  7 sX4X7 $X  uX3.pX$.sXnX  3.4X4X7 sX    uX7 3.pX4X  qXuXuXpXqX  pXo $XeX4X].: p.oXb.: j.2.XX' ",
"fX4XsXp.g.=XU j.j.j.j.j.j.f.].$.4XM $.pXpX4X  x 7 o 7 qX  $.].1X7 ]._   7 7 ].4X4X    $.1X4XM pX  $X$.7 7 x   pX..sX3.].].K b.b.p.8Xj.H K.V.",
"nXo sX: b.U 8Xj.j.j.d.j.j.z.fXK.1X].3.pXx fXs 1XqXM 3.nXfX| ].<.$X. s 3 $.M o uXM.@X  7 $X7 fXfX  <.$.$X$X0.hXpX3.o 7 ..$.t.t.: t.u j.LXLX' ",
"_ uXM K oXh.K j.j.j.j.j.j.U nXi.uXM sX$X<.G s 7 pX4XuXV.nX1X..4X7 s M.fX1Xo o pXfXs   $X<.$Xs MX  pX..uXM MXM.pX].3.M 4XeXt.g.K g.: j.V.LX X",
"M.eX7 U t.K K j.j.j.j.j.j.6X. 3 <.$.<.uX<.@XM.$.sX$.uXfX* qX].c 4XfXMXnX$.].].$XnXfX  4XuX3.s M.  uX4XeX$.fXnXpXpXM sX4XuXt.: oXoXK j.zXV.zX",
"<X].3.g.8Xu b.j.j.j.j.j.j.BXGX{ 3.sX7 pX7 fXMXM sX3.7 nX@Xx o M sXs @X_ $XM 3.pXs s   7 3.7 M.s   | $.eX].fXMXpXpX..4X3...b.oX: K : j.LXH LX",
"z ( 3.h.p.b.g.j.j.j.j.:XFX<XF.h { <X{ z <X,.,X3.o M { BXh $.$.4Xo FX,X7X<.3.sXM . _   M uX$.s R s x sXo M fXs 7 $XM 3.4X3.T t.K u p.j.l ,XW.",
"BX( BXoXg.b.u j.BX{ FX{ <X,X{ :.F.:Xl h GXz GX{ GX{ ( :.z W.:X{ FX{ GX<XFX<Xz l <X,Xz { ,.:Xz W ,X<XA :.= :XJ.A 4XsX3.uX1.oXt.=XoXb.j.n W ( ",
"<X<Xl BXF.l :X:X<X<XBX:X{ <X<X= z :Xh :.,.{ :.<Xz ,.:X.XBXz ( { h { :X,Xz :.W.<Xh l :.z <X<X,X<X<X<X{ .XBX<Xz z h z { 7 pXh.oXt.t.h.Y.FXh GX",
"z BX:X{ :Xz :XBX.Xz h :.z FX<X<XBX{ <Xz z BX<XGX:XBX<X:X:X<Xa.z l :X( :.W.{ z { BX:XBXh :Xh :.J.z z h h z l ,X( <X.X,.h = GX,Xn :.h W.,.h .X",
"<Xz { FX,X:X:.:.<X{ BXh :X:X:Xh :X{ :Xh l BX<Xl l h h ,X( { h :X{ l z .Xz z ,.W.:Xl { GXh { ,X:Xz <Xl Y.W.z :.( z GXz h = 2 l z z W.h l h W.",
"{ <Xz { GX{ BXFX<X:.z <X<X:X{ <X,Xz W.l :X<XW.W.{ ( z Y.{ h ( z h :X:XbX:.:.h :X{ FX:.z ,.,Xz ,Xh z FX( ,.<X,X,Xh ,.W.W n ,.:X,XW ( :.:X,.W."
};
