/* XPM */
static char *gateicon[] = {
/* columns rows colors chars-per-pixel */
"41 35 2 1 ",
"  c gray100",
". c black",
/* pixels */
" ....            ..   ..            .... ",
".    .          .... ....          .    .",
".    .          .... ....          .    .",
".    .       ..  ..   ..  ..       .    .",
".    .      .... ..   .. ....      .    .",
".    .      .... ..   .. ....      .    .",
" ....    ..  ..  ..   ..  ..  ..    .... ",
"....... .... ..  ..   ..  .. .... .......",
".     .  ..  ..  ..   ..  ..  ..  .     .",
".     .  ..  ..  ..   ..  ..  ..  .     .",
". . . .  ..  ..  ..   ..  ..  ..  . . . .",
". . . .............. .............. . . .",
". . . .............. .............. . . .",
". . . .  ..  ..  ..   ..  ..  ..  . . . .",
". . . .  ..  ..  ..   ..  ..  ..  . . . .",
". . . .  ..  ..  ..   ..  ..  ..  . . . .",
". . . .  ..  ..  ..   ..  ..  ..  . . . .",
". . . .  ..  ..  ..   ..  ..  ..  . . . .",
". . . .  ..  ..  ..   ..  ..  ..  . . . .",
". . . .  ..  ..  ..   ..  ..  ..  . . . .",
". . . .  ..  ..  ..   ..  ..  ..  . . . .",
". . . .  ..  ..  ..   ..  ..  ..  . . . .",
". . . .  ..  ..  ..   ..  ..  ..  . . . .",
". . . .  ..  ..  ..   ..  ..  ..  . . . .",
". . . .  ..  ..  ..   ..  ..  ..  . . . .",
". . . .  ..  ..  ..   ..  ..  ..  . . . .",
". . . .  ..  ..  ..   ..  ..  ..  . . . .",
". . . .  ..  ..  ..   ..  ..  ..  . . . .",
". . . .............. .............. . . .",
". . . .  ..  ..  ..   ..  ..  ..  . . . .",
". . . .  ..  ..  ..   ..  ..  ..  . . . .",
". . . .  ..  ..  ..   ..  ..  ..  . . . .",
".     .  ..  ..  ..   ..  ..  ..  .     .",
".     .  ..  ..  ..   ..  ..  ..  .     .",
".......                           ......."
};
